<svg width="30" height="30" viewBox="0 0 30 30" fill="none" xmlns="http://www.w3.org/2000/svg">
<g clip-path="url(#clip0_14_2)">
<mask id="mask0_14_2" style="mask-type:luminance" maskUnits="userSpaceOnUse" x="0" y="0" width="31" height="30">
<path d="M0.967773 0H30.9678V30H0.967773V0Z" fill="white"/>
</mask>
<g mask="url(#mask0_14_2)">
<path d="M6.3501 0H7.7026V1.33625H8.9401V0H10.2926V4.045H8.9401V2.69125H7.7026V4.045H6.35135L6.3501 0ZM12.0701 1.34125H10.8801V0H14.6138V1.34125H13.4226V4.045H12.0701V1.34125ZM15.2063 0H16.6163L17.4838 1.42125L18.3501 0H19.7601V4.045H18.4138V2.04L17.4838 3.47875H17.4601L16.5288 2.04125V4.045H15.2063V0ZM20.4326 0H21.7863V2.70875H23.6863V4.04625H20.4326V0Z" fill="#E1E1E1"/>
<path fill-rule="evenodd" clip-rule="evenodd" d="M6.3075 27.59L3.75 5.89624H26.25L23.6912 27.5875L14.9875 30L6.3075 27.59ZM11.4787 15.715L11.2363 12.99H21.4175L21.655 10.33H8.33L9.0475 18.3762H18.2687L17.96 21.8262L14.9925 22.6287H14.99L12.0275 21.8287L11.8375 19.7075H9.165L9.5375 23.885L14.9875 25.3975L20.4463 23.885L21.1112 16.43L21.1763 15.7162H11.4787V15.715Z" fill="#E1E1E1"/>
</g>
</g>
<defs>
<clipPath id="clip0_14_2">
<rect width="30" height="30" fill="white"/>
</clipPath>
</defs>
</svg>
