<svg width="30" height="30" viewBox="0 0 30 30" fill="none" xmlns="http://www.w3.org/2000/svg">
<g clip-path="url(#clip0_14_10)">
<path d="M9.37744 0H12.5999V1.3475H10.7249V2.695H12.5999V4.0425H9.37744V0ZM13.2437 0H16.4674V1.1725H14.5924V1.40625H16.4674V4.10125H13.2437V2.87125H15.1187V2.63625H13.2437V0ZM17.1124 0H20.3337V1.1725H18.4587V1.40625H20.3337V4.10125H17.1124V2.87125H18.9874V2.63625H17.1124V0Z" fill="#E1E1E1"/>
<path fill-rule="evenodd" clip-rule="evenodd" d="M14.9888 30L6.30875 27.59L3.75 5.89624H26.25L23.6925 27.5875L14.9888 30ZM8.80875 15.7162L9.0475 18.3762H18.2687L17.96 21.8262L14.9925 22.6287H14.99L12.0275 21.8287L11.8375 19.7075H9.16625L9.53875 23.885L14.9888 25.3975L20.4475 23.885L21.1125 16.43L21.1775 15.7162L21.6575 10.33H8.33L8.5725 12.9912H18.7425L18.5 15.7162H8.80875Z" fill="#E1E1E1"/>
</g>
<defs>
<clipPath id="clip0_14_10">
<rect width="30" height="30" fill="white"/>
</clipPath>
</defs>
</svg>
