<svg width="30" height="30" viewBox="0 0 30 30" fill="none" xmlns="http://www.w3.org/2000/svg">
<path d="M25 16V15.666C25 14.194 23.806 13 22.334 13H20C19.2044 13 18.4413 13.3161 17.8787 13.8787C17.3161 14.4413 17 15.2044 17 16C17 16.7956 17.3161 17.5587 17.8787 18.1213C18.4413 18.6839 19.2044 19 20 19H22C22.7956 19 23.5587 19.3161 24.1213 19.8787C24.6839 20.4413 25 21.2044 25 22C25 22.7956 24.6839 23.5587 24.1213 24.1213C23.5587 24.6839 22.7956 25 22 25H20C19.2044 25 18.4413 24.6839 17.8787 24.1213C17.3161 23.5587 17 22.7956 17 22M16 13H6M11 13V26M1 1H29V29H1V1Z" stroke="#E1E1E1"/>
</svg>
