<svg width="31" height="30" viewBox="0 0 31 30" fill="none" xmlns="http://www.w3.org/2000/svg">
<path d="M15.5001 0.916626C13.585 0.916626 11.6886 1.29384 9.91928 2.02672C8.14995 2.7596 6.54229 3.8338 5.18811 5.18799C2.4532 7.92289 0.916748 11.6322 0.916748 15.5C0.916748 21.9458 5.10216 27.4145 10.8917 29.3541C11.6209 29.4708 11.8542 29.0187 11.8542 28.625V26.1604C7.81466 27.0354 6.95425 24.2062 6.95425 24.2062C6.28341 22.5145 5.3355 22.0625 5.3355 22.0625C4.00841 21.1583 5.43758 21.1875 5.43758 21.1875C6.89591 21.2895 7.66883 22.6895 7.66883 22.6895C8.93758 24.9062 11.0813 24.25 11.9126 23.9C12.0438 22.952 12.423 22.3104 12.8313 21.9458C9.59383 21.5812 6.19591 20.327 6.19591 14.7708C6.19591 13.152 6.75008 11.8541 7.698 10.8187C7.55216 10.4541 7.04175 8.93746 7.84383 6.96871C7.84383 6.96871 9.06883 6.57496 11.8542 8.45621C13.0063 8.13538 14.2605 7.97496 15.5001 7.97496C16.7397 7.97496 17.9938 8.13538 19.1459 8.45621C21.9313 6.57496 23.1563 6.96871 23.1563 6.96871C23.9584 8.93746 23.448 10.4541 23.3022 10.8187C24.2501 11.8541 24.8042 13.152 24.8042 14.7708C24.8042 20.3416 21.3917 21.5666 18.1397 21.9312C18.6647 22.3833 19.1459 23.2729 19.1459 24.6291V28.625C19.1459 29.0187 19.3792 29.4854 20.123 29.3541C25.9126 27.4 30.0834 21.9458 30.0834 15.5C30.0834 13.5848 29.7062 11.6885 28.9733 9.91916C28.2404 8.14983 27.1662 6.54217 25.8121 5.18799C24.4579 3.8338 22.8502 2.7596 21.0809 2.02672C19.3116 1.29384 17.4152 0.916626 15.5001 0.916626Z" fill="#E1E1E1"/>
</svg>
