<svg width="30" height="30" viewBox="0 0 30 30" fill="none" xmlns="http://www.w3.org/2000/svg">
<path d="M5.625 14.0625C5.87364 14.0625 6.1121 13.9637 6.28791 13.7879C6.46373 13.6121 6.5625 13.3736 6.5625 13.125V4.6875H16.875V10.3125C16.875 10.5611 16.9738 10.7996 17.1496 10.9754C17.3254 11.1512 17.5639 11.25 17.8125 11.25H23.4375V13.125C23.4375 13.3736 23.5363 13.6121 23.7121 13.7879C23.8879 13.9637 24.1264 14.0625 24.375 14.0625C24.6236 14.0625 24.8621 13.9637 25.0379 13.7879C25.2137 13.6121 25.3125 13.3736 25.3125 13.125V10.3125C25.3126 10.1893 25.2884 10.0674 25.2414 9.95358C25.1943 9.83977 25.1253 9.73635 25.0383 9.64922L18.4758 3.08672C18.3887 2.99969 18.2852 2.93067 18.1714 2.88362C18.0576 2.83657 17.9357 2.8124 17.8125 2.8125H6.5625C6.06522 2.8125 5.58831 3.01004 5.23667 3.36168C4.88504 3.71331 4.6875 4.19022 4.6875 4.6875V13.125C4.6875 13.3736 4.78627 13.6121 4.96209 13.7879C5.1379 13.9637 5.37636 14.0625 5.625 14.0625ZM18.75 6.01289L22.1121 9.375H18.75V6.01289ZM26.7188 24.375C26.7188 24.6236 26.62 24.8621 26.4442 25.0379C26.2683 25.2137 26.0299 25.3125 25.7812 25.3125H22.5C22.2514 25.3125 22.0129 25.2137 21.8371 25.0379C21.6613 24.8621 21.5625 24.6236 21.5625 24.375V17.8125C21.5625 17.5639 21.6613 17.3254 21.8371 17.1496C22.0129 16.9738 22.2514 16.875 22.5 16.875C22.7486 16.875 22.9871 16.9738 23.1629 17.1496C23.3387 17.3254 23.4375 17.5639 23.4375 17.8125V23.4375H25.7812C26.0299 23.4375 26.2683 23.5363 26.4442 23.7121C26.62 23.8879 26.7188 24.1264 26.7188 24.375ZM10.7602 23.0051C10.7236 23.3636 10.6081 23.7097 10.4219 24.0183C10.2357 24.3269 9.9834 24.5904 9.6832 24.7898C9.075 25.1953 8.32031 25.3125 7.63359 25.3125C7.03468 25.3094 6.43856 25.2306 5.85938 25.0781C5.62275 25.0088 5.42296 24.8491 5.30326 24.6335C5.18356 24.418 5.15361 24.1639 5.21988 23.9264C5.28615 23.689 5.44331 23.4871 5.65732 23.3647C5.87133 23.2422 6.12496 23.209 6.36328 23.2723C6.87656 23.4129 8.11523 23.5887 8.6543 23.2301C8.75859 23.1609 8.86875 23.052 8.90508 22.7695C8.94609 22.4566 8.82187 22.2891 7.40742 21.8801C6.31172 21.5637 4.47773 21.0328 4.71211 19.1719C4.74859 18.8204 4.86199 18.4812 5.04426 18.1784C5.22654 17.8756 5.47322 17.6167 5.7668 17.4199C7.1543 16.4824 9.3668 17.032 9.61406 17.0965C9.73318 17.1279 9.84494 17.1824 9.94297 17.257C10.041 17.3316 10.1234 17.4248 10.1854 17.5312C10.2474 17.6376 10.2879 17.7552 10.3045 17.8773C10.3211 17.9993 10.3134 18.1235 10.282 18.2426C10.2506 18.3617 10.1961 18.4735 10.1215 18.5715C10.0469 18.6695 9.95375 18.7519 9.84733 18.8139C9.7409 18.876 9.6233 18.9164 9.50124 18.933C9.37918 18.9496 9.25505 18.9419 9.13594 18.9105C8.60977 18.7734 7.35234 18.6105 6.81328 18.9762C6.74262 19.0238 6.68445 19.0878 6.64366 19.1626C6.60287 19.2375 6.58066 19.321 6.57891 19.4063C6.56484 19.5117 6.5625 19.5328 6.71016 19.6289C6.98086 19.8035 7.46484 19.943 7.93477 20.0789C9.08203 20.4105 11.0227 20.9766 10.7602 23.0051ZM19.0805 23.3836C19.4803 22.6868 19.6897 21.8971 19.6875 21.0938C19.6875 18.7676 18.0059 16.875 15.9375 16.875C13.8691 16.875 12.1875 18.7676 12.1875 21.0938C12.1875 23.4199 13.8691 25.3125 15.9375 25.3125C16.5997 25.3101 17.247 25.1155 17.8008 24.7523L18.0867 25.0383C18.2626 25.214 18.5012 25.3127 18.7498 25.3126C18.9985 25.3125 19.2369 25.2136 19.4127 25.0377C19.5885 24.8618 19.6871 24.6233 19.687 24.3746C19.6869 24.1259 19.588 23.8875 19.4121 23.7117L19.0805 23.3836ZM15.9375 23.4375C14.9039 23.4375 14.0625 22.3828 14.0625 21.0938C14.0625 19.8047 14.9039 18.75 15.9375 18.75C16.9711 18.75 17.8125 19.8047 17.8125 21.0938C17.8127 21.3925 17.766 21.6895 17.6742 21.9738L17.5371 21.8367C17.45 21.7497 17.3466 21.6807 17.2328 21.6336C17.1191 21.5865 16.9971 21.5623 16.874 21.5624C16.6253 21.5625 16.3869 21.6614 16.2111 21.8373C16.0354 22.0132 15.9367 22.2517 15.9368 22.5004C15.9369 22.7491 16.0358 22.9875 16.2117 23.1633L16.4086 23.359C16.2567 23.4099 16.0977 23.4364 15.9375 23.4375Z" fill="#E1E1E1"/>
</svg>
