<svg width="24" height="30" viewBox="0 0 24 30" fill="none" xmlns="http://www.w3.org/2000/svg">
<path d="M3.3501 0H4.7026V1.33625H5.9401V0H7.2926V4.045H5.9401V2.69125H4.7026V4.045H3.35135L3.3501 0ZM9.0701 1.34125H7.8801V0H11.6138V1.34125H10.4226V4.045H9.0701V1.34125ZM12.2063 0H13.6163L14.4838 1.42125L15.3501 0H16.7601V4.045H15.4138V2.04L14.4838 3.47875H14.4601L13.5288 2.04125V4.045H12.2063V0ZM17.4326 0H18.7863V2.70875H20.6863V4.04625H17.4326V0Z" fill="#E1E1E1"/>
<path fill-rule="evenodd" clip-rule="evenodd" d="M3.3075 27.59L0.75 5.89624H23.25L20.6912 27.5875L11.9875 30L3.3075 27.59ZM8.47875 15.715L8.23625 12.99H18.4175L18.655 10.33H5.33L6.0475 18.3762H15.2687L14.96 21.8262L11.9925 22.6287H11.99L9.0275 21.8287L8.8375 19.7075H6.165L6.5375 23.885L11.9875 25.3975L17.4463 23.885L18.1112 16.43L18.1763 15.7162H8.47875V15.715Z" fill="#E1E1E1"/>
</svg>
