<svg width="27" height="35" viewBox="0 0 27 35" fill="none" xmlns="http://www.w3.org/2000/svg">
<path fill-rule="evenodd" clip-rule="evenodd" d="M5.89801 12.6126C5.12407 12.6126 4.35771 12.739 3.64269 12.9845C2.92766 13.2301 2.27797 13.59 1.73072 14.0438C1.18346 14.4975 0.749351 15.0362 0.453178 15.6291C0.157004 16.2219 0.00456622 16.8574 0.00456622 17.4991C0.00456622 18.1408 0.157004 18.7762 0.453178 19.369C0.749351 19.9619 1.18346 20.5006 1.73072 20.9543C2.27797 21.4081 2.92766 21.768 3.64269 22.0136C4.35771 22.2592 5.12407 22.3855 5.89801 22.3855H11.7915V17.5974C11.7905 17.5318 11.7905 17.4663 11.7915 17.4007V12.6126H5.89801ZM11.7915 9.77488H5.89801C4.33467 9.77488 2.83536 9.25995 1.72991 8.34338C0.624459 7.42681 0.00342495 6.18367 0.00342495 4.88744C0.00342495 3.59121 0.624459 2.34807 1.72991 1.4315C2.83536 0.514925 4.33467 0 5.89801 0H11.7915V9.77488ZM15.2139 0V9.77488H21.1073C22.6506 9.7497 24.1204 9.22371 25.2011 8.30988C26.2817 7.39605 26.8871 6.16726 26.8871 4.88744C26.8871 3.60761 26.2817 2.37883 25.2011 1.465C24.1204 0.551164 22.6506 0.0251758 21.1073 0H15.2139ZM21.1073 12.6107C19.5604 12.6105 18.0754 13.1147 16.9728 14.0144C15.8702 14.914 15.2384 16.1371 15.2139 17.4196V17.5766C15.2328 18.5395 15.5944 19.4764 16.2534 20.2694C16.9123 21.0625 17.8392 21.6764 18.9176 22.0341C19.996 22.3918 21.1779 22.4773 22.3147 22.2799C23.4515 22.0825 24.4927 21.6109 25.3073 20.9245C26.122 20.238 26.6738 19.3673 26.8936 18.4216C27.1133 17.476 26.9911 16.4976 26.5424 15.6093C26.0937 14.721 25.3384 13.9625 24.3714 13.429C23.4044 12.8955 22.2688 12.6108 21.1073 12.6107ZM5.89801 25.2232C4.73185 25.2229 3.59174 25.5092 2.6219 26.0462C1.65205 26.5831 0.896027 27.3464 0.449444 28.2396C0.00286033 29.1328 -0.114221 30.1158 0.113009 31.0641C0.340239 32.0125 0.901572 32.8837 1.72601 33.5676C2.55045 34.2514 3.60097 34.7172 4.74469 34.9059C5.88841 35.0947 7.07396 34.998 8.1514 34.6281C9.22883 34.2581 10.1498 33.6316 10.7977 32.8277C11.4456 32.0237 11.7915 31.0785 11.7915 30.1116V25.2232H5.89801Z" fill="#E1E1E1"/>
</svg>
