<svg width="71" height="23" viewBox="0 0 71 23" fill="none" xmlns="http://www.w3.org/2000/svg">
<path d="M13.94 20.41L1.94 15.34C1.02 14.96 0.56 14.3 0.56 13.36C0.56 12.9 0.67 12.52 0.89 12.22C1.13 11.9 1.48 11.64 1.94 11.44L13.94 6.34C14.28 6.2 14.58 6.17 14.84 6.25C15.12 6.33 15.34 6.48 15.5 6.7C15.66 6.92 15.75 7.17 15.77 7.45C15.79 7.73 15.73 8 15.59 8.26C15.47 8.5 15.24 8.69 14.9 8.83L1.82 14.32V12.46L14.9 17.95C15.24 18.09 15.47 18.29 15.59 18.55C15.73 18.79 15.79 19.05 15.77 19.33C15.75 19.59 15.66 19.83 15.5 20.05C15.34 20.27 15.12 20.42 14.84 20.5C14.58 20.58 14.28 20.55 13.94 20.41ZM26.5083 22.24C25.8883 22.24 25.4083 22.07 25.0683 21.73C24.7483 21.37 24.5883 20.87 24.5883 20.23V11.11L25.3983 13.42L18.1683 3.25C17.9083 2.89 17.7883 2.51 17.8083 2.11C17.8483 1.69 18.0183 1.34 18.3183 1.06C18.6183 0.759999 19.0383 0.609998 19.5783 0.609998C19.9783 0.609998 20.3383 0.709999 20.6583 0.91C20.9983 1.11 21.3183 1.42 21.6183 1.84L26.9883 9.46H26.1483L31.5483 1.84C31.8683 1.4 32.1783 1.09 32.4783 0.91C32.7783 0.709999 33.1483 0.609998 33.5883 0.609998C34.1083 0.609998 34.5083 0.749998 34.7883 1.03C35.0883 1.29 35.2383 1.62 35.2383 2.02C35.2583 2.42 35.1183 2.84 34.8183 3.28L27.6483 13.42L28.4283 11.11V20.23C28.4283 21.57 27.7883 22.24 26.5083 22.24ZM44.9301 22.3C44.0501 22.3 43.1701 22.23 42.2901 22.09C41.4101 21.97 40.5801 21.78 39.8001 21.52C39.0201 21.24 38.3201 20.9 37.7001 20.5C37.3401 20.26 37.0901 19.97 36.9501 19.63C36.8101 19.29 36.7601 18.96 36.8001 18.64C36.8601 18.3 36.9901 18.01 37.1901 17.77C37.4101 17.51 37.6801 17.35 38.0001 17.29C38.3201 17.23 38.6701 17.32 39.0501 17.56C39.9301 18.08 40.8601 18.46 41.8401 18.7C42.8201 18.94 43.8501 19.06 44.9301 19.06C46.5101 19.06 47.6601 18.8 48.3801 18.28C49.1001 17.74 49.4601 17.05 49.4601 16.21C49.4601 15.51 49.2001 14.96 48.6801 14.56C48.1801 14.16 47.3101 13.83 46.0701 13.57L42.7701 12.88C40.8701 12.48 39.4501 11.81 38.5101 10.87C37.5901 9.91 37.1301 8.65 37.1301 7.09C37.1301 6.11 37.3301 5.22 37.7301 4.42C38.1301 3.62 38.6901 2.93 39.4101 2.35C40.1501 1.77 41.0201 1.33 42.0201 1.03C43.0401 0.709999 44.1601 0.549999 45.3801 0.549999C46.5801 0.549999 47.7201 0.699999 48.8001 0.999999C49.8801 1.3 50.8501 1.74 51.7101 2.32C52.0301 2.54 52.2401 2.81 52.3401 3.13C52.4601 3.45 52.4901 3.77 52.4301 4.09C52.3701 4.39 52.2301 4.65 52.0101 4.87C51.7901 5.09 51.5101 5.22 51.1701 5.26C50.8501 5.3 50.4801 5.2 50.0601 4.96C49.3201 4.54 48.5701 4.24 47.8101 4.06C47.0501 3.88 46.2301 3.79 45.3501 3.79C44.4301 3.79 43.6401 3.92 42.9801 4.18C42.3201 4.44 41.8101 4.81 41.4501 5.29C41.1101 5.75 40.9401 6.3 40.9401 6.94C40.9401 7.66 41.1801 8.24 41.6601 8.68C42.1401 9.1 42.9601 9.43 44.1201 9.67L47.3901 10.36C49.3701 10.78 50.8401 11.44 51.8001 12.34C52.7801 13.24 53.2701 14.44 53.2701 15.94C53.2701 16.9 53.0701 17.77 52.6701 18.55C52.2901 19.33 51.7301 20 50.9901 20.56C50.2701 21.12 49.4001 21.55 48.3801 21.85C47.3601 22.15 46.2101 22.3 44.9301 22.3ZM57.5959 20.41C57.2559 20.55 56.9459 20.58 56.6659 20.5C56.4059 20.42 56.1959 20.27 56.0359 20.05C55.8759 19.83 55.7859 19.59 55.7659 19.33C55.7459 19.05 55.8059 18.79 55.9459 18.55C56.0859 18.29 56.3159 18.09 56.6359 17.95L69.7159 12.46V14.32L56.6359 8.83C56.3159 8.69 56.0859 8.5 55.9459 8.26C55.8059 8 55.7459 7.73 55.7659 7.45C55.7859 7.17 55.8759 6.92 56.0359 6.7C56.1959 6.48 56.4059 6.33 56.6659 6.25C56.9459 6.17 57.2559 6.2 57.5959 6.34L69.5959 11.44C70.5159 11.82 70.9759 12.46 70.9759 13.36C70.9759 13.82 70.8559 14.22 70.6159 14.56C70.3959 14.88 70.0559 15.14 69.5959 15.34L57.5959 20.41Z" fill="#F7F7F7"/>
</svg>
